# xmcd CD database file
#
# Track frame offsets:
#	183
#	16580
#	30945
#	49135
#	64348
#	83145
#	107720
#	121745
#	138765
#	156055
#	175440
#
# Disc length: 2656 seconds
#
# Revision: 6
# Processed by: cddbd v1.5.2PL0 Copyright (c) Steve Scherf et al.
# Submitted via: CDex 1.51
#
DISCID=7f0a5e0b
DTITLE=Nina Simone - My Baby Just Cares for Me
DYEAR=1996
DGENRE=Soul
TTITLE0=My Baby Just Cares for Me
TTITLE1=Don't Smoke in Bed
TTITLE2=Mood Indigo
TTITLE3=Love Me or Leave Me
TTITLE4=I Love You Porgy
TTITLE5=Good Bait
TTITLE6=Central Park Blues
TTITLE7=You'll Never Walk Alone
TTITLE8=Plain Gold Ring
TTITLE9=Little Girl Blue
TTITLE10=My Baby Just Cares For Me (extended)
EXTD=YEAR: 1996
EXTT0=
EXTT1=
EXTT2=
EXTT3=
EXTT4=
EXTT5=
EXTT6=
EXTT7=
EXTT8=
EXTT9=
EXTT10=
PLAYORDER=
